solid CoverWHole
   facet normal 0.000000e+00 0.000000e+00 1.000000e+00
      outer loop
         vertex 2.966654e-14 5.609123e+01 6.000000e+01
         vertex -1.094286e+01 5.501345e+01 6.000000e+01
         vertex 1.094286e+01 5.501345e+01 6.000000e+01
      endloop
   endfacet
   facet normal 0.000000e+00 0.000000e+00 1.000000e+00
      outer loop
         vertex -1.094286e+01 5.501345e+01 6.000000e+01
         vertex -2.146518e+01 5.182154e+01 6.000000e+01
         vertex 1.094286e+01 5.501345e+01 6.000000e+01
      endloop
   endfacet
   facet normal 0.000000e+00 0.000000e+00 1.000000e+00
      outer loop
         vertex 1.094286e+01 5.501345e+01 6.000000e+01
         vertex -2.146518e+01 5.182154e+01 6.000000e+01
         vertex 2.146518e+01 5.182154e+01 6.000000e+01
      endloop
   endfacet
   facet normal 0.000000e+00 0.000000e+00 1.000000e+00
      outer loop
         vertex -2.146518e+01 5.182154e+01 6.000000e+01
         vertex -3.116262e+01 4.663815e+01 6.000000e+01
         vertex 2.146518e+01 5.182154e+01 6.000000e+01
      endloop
   endfacet
   facet normal 0.000000e+00 0.000000e+00 1.000000e+00
      outer loop
         vertex 2.146518e+01 5.182154e+01 6.000000e+01
         vertex -3.116262e+01 4.663815e+01 6.000000e+01
         vertex 3.116262e+01 4.663815e+01 6.000000e+01
      endloop
   endfacet
   facet normal 0.000000e+00 0.000000e+00 1.000000e+00
      outer loop
         vertex -3.116262e+01 4.663815e+01 6.000000e+01
         vertex -3.966249e+01 3.966249e+01 6.000000e+01
         vertex 3.116262e+01 4.663815e+01 6.000000e+01
      endloop
   endfacet
   facet normal 0.000000e+00 0.000000e+00 1.000000e+00
      outer loop
         vertex 3.116262e+01 4.663815e+01 6.000000e+01
         vertex -3.966249e+01 3.966249e+01 6.000000e+01
         vertex 3.966249e+01 3.966249e+01 6.000000e+01
      endloop
   endfacet
   facet normal 0.000000e+00 0.000000e+00 1.000000e+00
      outer loop
         vertex -3.966249e+01 3.966249e+01 6.000000e+01
         vertex -4.663815e+01 3.116262e+01 6.000000e+01
         vertex 3.966249e+01 3.966249e+01 6.000000e+01
      endloop
   endfacet
   facet normal 0.000000e+00 0.000000e+00 1.000000e+00
      outer loop
         vertex 3.966249e+01 3.966249e+01 6.000000e+01
         vertex -4.663815e+01 3.116262e+01 6.000000e+01
         vertex 4.663815e+01 3.116262e+01 6.000000e+01
      endloop
   endfacet
   facet normal 0.000000e+00 0.000000e+00 1.000000e+00
      outer loop
         vertex -4.663815e+01 3.116262e+01 6.000000e+01
         vertex -5.182154e+01 2.146518e+01 6.000000e+01
         vertex 4.663815e+01 3.116262e+01 6.000000e+01
      endloop
   endfacet
   facet normal 0.000000e+00 0.000000e+00 1.000000e+00
      outer loop
         vertex 4.663815e+01 3.116262e+01 6.000000e+01
         vertex -5.182154e+01 2.146518e+01 6.000000e+01
         vertex 5.182154e+01 2.146518e+01 6.000000e+01
      endloop
   endfacet
   facet normal 0.000000e+00 0.000000e+00 1.000000e+00
      outer loop
         vertex -5.182154e+01 2.146518e+01 6.000000e+01
         vertex -5.501345e+01 1.094286e+01 6.000000e+01
         vertex 5.182154e+01 2.146518e+01 6.000000e+01
      endloop
   endfacet
   facet normal 0.000000e+00 0.000000e+00 1.000000e+00
      outer loop
         vertex 5.182154e+01 2.146518e+01 6.000000e+01
         vertex -5.501345e+01 1.094286e+01 6.000000e+01
         vertex 5.501345e+01 1.094286e+01 6.000000e+01
      endloop
   endfacet
   facet normal 0.000000e+00 0.000000e+00 1.000000e+00
      outer loop
         vertex -5.501345e+01 1.094286e+01 6.000000e+01
         vertex 1.018888e-15 6.000000e+00 6.000000e+01
         vertex 5.501345e+01 1.094286e+01 6.000000e+01
      endloop
   endfacet
   facet normal 0.000000e+00 0.000000e+00 1.000000e+00
      outer loop
         vertex 5.501345e+01 1.094286e+01 6.000000e+01
         vertex 1.018888e-15 6.000000e+00 6.000000e+01
         vertex 1.170542e+00 5.884712e+00 6.000000e+01
      endloop
   endfacet
   facet normal 0.000000e+00 0.000000e+00 1.000000e+00
      outer loop
         vertex -5.501345e+01 1.094286e+01 6.000000e+01
         vertex -5.609123e+01 2.096193e-14 6.000000e+01
         vertex -5.884712e+00 1.170542e+00 6.000000e+01
      endloop
   endfacet
   facet normal 0.000000e+00 0.000000e+00 1.000000e+00
      outer loop
         vertex -5.501345e+01 1.094286e+01 6.000000e+01
         vertex -5.884712e+00 1.170542e+00 6.000000e+01
         vertex -5.543277e+00 2.296101e+00 6.000000e+01
      endloop
   endfacet
   facet normal 0.000000e+00 0.000000e+00 1.000000e+00
      outer loop
         vertex -5.501345e+01 1.094286e+01 6.000000e+01
         vertex -5.543277e+00 2.296101e+00 6.000000e+01
         vertex -4.988818e+00 3.333421e+00 6.000000e+01
      endloop
   endfacet
   facet normal 0.000000e+00 0.000000e+00 1.000000e+00
      outer loop
         vertex -5.501345e+01 1.094286e+01 6.000000e+01
         vertex -4.988818e+00 3.333421e+00 6.000000e+01
         vertex -4.242641e+00 4.242641e+00 6.000000e+01
      endloop
   endfacet
   facet normal 0.000000e+00 0.000000e+00 1.000000e+00
      outer loop
         vertex -5.501345e+01 1.094286e+01 6.000000e+01
         vertex -4.242641e+00 4.242641e+00 6.000000e+01
         vertex -3.333421e+00 4.988818e+00 6.000000e+01
      endloop
   endfacet
   facet normal 0.000000e+00 0.000000e+00 1.000000e+00
      outer loop
         vertex -5.501345e+01 1.094286e+01 6.000000e+01
         vertex -3.333421e+00 4.988818e+00 6.000000e+01
         vertex -2.296101e+00 5.543277e+00 6.000000e+01
      endloop
   endfacet
   facet normal 0.000000e+00 0.000000e+00 1.000000e+00
      outer loop
         vertex -5.501345e+01 1.094286e+01 6.000000e+01
         vertex -2.296101e+00 5.543277e+00 6.000000e+01
         vertex -1.170542e+00 5.884712e+00 6.000000e+01
      endloop
   endfacet
   facet normal 0.000000e+00 0.000000e+00 1.000000e+00
      outer loop
         vertex -5.501345e+01 1.094286e+01 6.000000e+01
         vertex -1.170542e+00 5.884712e+00 6.000000e+01
         vertex 1.018888e-15 6.000000e+00 6.000000e+01
      endloop
   endfacet
   facet normal 0.000000e+00 0.000000e+00 1.000000e+00
      outer loop
         vertex -5.609123e+01 2.096193e-14 6.000000e+01
         vertex -5.501345e+01 -1.094286e+01 6.000000e+01
         vertex -1.170542e+00 -5.884712e+00 6.000000e+01
      endloop
   endfacet
   facet normal 0.000000e+00 0.000000e+00 1.000000e+00
      outer loop
         vertex -5.609123e+01 2.096193e-14 6.000000e+01
         vertex -1.170542e+00 -5.884712e+00 6.000000e+01
         vertex -2.296101e+00 -5.543277e+00 6.000000e+01
      endloop
   endfacet
   facet normal 0.000000e+00 0.000000e+00 1.000000e+00
      outer loop
         vertex -5.609123e+01 2.096193e-14 6.000000e+01
         vertex -2.296101e+00 -5.543277e+00 6.000000e+01
         vertex -3.333421e+00 -4.988818e+00 6.000000e+01
      endloop
   endfacet
   facet normal 0.000000e+00 0.000000e+00 1.000000e+00
      outer loop
         vertex -5.609123e+01 2.096193e-14 6.000000e+01
         vertex -3.333421e+00 -4.988818e+00 6.000000e+01
         vertex -4.242641e+00 -4.242641e+00 6.000000e+01
      endloop
   endfacet
   facet normal 0.000000e+00 0.000000e+00 1.000000e+00
      outer loop
         vertex -5.609123e+01 2.096193e-14 6.000000e+01
         vertex -4.242641e+00 -4.242641e+00 6.000000e+01
         vertex -4.988818e+00 -3.333421e+00 6.000000e+01
      endloop
   endfacet
   facet normal 0.000000e+00 0.000000e+00 1.000000e+00
      outer loop
         vertex -5.609123e+01 2.096193e-14 6.000000e+01
         vertex -4.988818e+00 -3.333421e+00 6.000000e+01
         vertex -5.543277e+00 -2.296101e+00 6.000000e+01
      endloop
   endfacet
   facet normal 0.000000e+00 0.000000e+00 1.000000e+00
      outer loop
         vertex -5.609123e+01 2.096193e-14 6.000000e+01
         vertex -5.543277e+00 -2.296101e+00 6.000000e+01
         vertex -5.884712e+00 -1.170542e+00 6.000000e+01
      endloop
   endfacet
   facet normal 0.000000e+00 0.000000e+00 1.000000e+00
      outer loop
         vertex -5.609123e+01 2.096193e-14 6.000000e+01
         vertex -5.884712e+00 -1.170542e+00 6.000000e+01
         vertex -6.000000e+00 4.385381e-15 6.000000e+01
      endloop
   endfacet
   facet normal 0.000000e+00 0.000000e+00 1.000000e+00
      outer loop
         vertex -5.609123e+01 2.096193e-14 6.000000e+01
         vertex -6.000000e+00 4.385381e-15 6.000000e+01
         vertex -5.884712e+00 1.170542e+00 6.000000e+01
      endloop
   endfacet
   facet normal 0.000000e+00 0.000000e+00 1.000000e+00
      outer loop
         vertex -2.267923e-14 -5.609123e+01 6.000000e+01
         vertex 1.094286e+01 -5.501345e+01 6.000000e+01
         vertex -1.094286e+01 -5.501345e+01 6.000000e+01
      endloop
   endfacet
   facet normal 0.000000e+00 0.000000e+00 1.000000e+00
      outer loop
         vertex 1.094286e+01 -5.501345e+01 6.000000e+01
         vertex 2.146518e+01 -5.182154e+01 6.000000e+01
         vertex -1.094286e+01 -5.501345e+01 6.000000e+01
      endloop
   endfacet
   facet normal 0.000000e+00 0.000000e+00 1.000000e+00
      outer loop
         vertex -1.094286e+01 -5.501345e+01 6.000000e+01
         vertex 2.146518e+01 -5.182154e+01 6.000000e+01
         vertex -2.146518e+01 -5.182154e+01 6.000000e+01
      endloop
   endfacet
   facet normal 0.000000e+00 0.000000e+00 1.000000e+00
      outer loop
         vertex 2.146518e+01 -5.182154e+01 6.000000e+01
         vertex 3.116262e+01 -4.663815e+01 6.000000e+01
         vertex -2.146518e+01 -5.182154e+01 6.000000e+01
      endloop
   endfacet
   facet normal 0.000000e+00 0.000000e+00 1.000000e+00
      outer loop
         vertex -2.146518e+01 -5.182154e+01 6.000000e+01
         vertex 3.116262e+01 -4.663815e+01 6.000000e+01
         vertex -3.116262e+01 -4.663815e+01 6.000000e+01
      endloop
   endfacet
   facet normal 0.000000e+00 0.000000e+00 1.000000e+00
      outer loop
         vertex 3.116262e+01 -4.663815e+01 6.000000e+01
         vertex 3.966249e+01 -3.966249e+01 6.000000e+01
         vertex -3.116262e+01 -4.663815e+01 6.000000e+01
      endloop
   endfacet
   facet normal 0.000000e+00 0.000000e+00 1.000000e+00
      outer loop
         vertex -3.116262e+01 -4.663815e+01 6.000000e+01
         vertex 3.966249e+01 -3.966249e+01 6.000000e+01
         vertex -3.966249e+01 -3.966249e+01 6.000000e+01
      endloop
   endfacet
   facet normal 0.000000e+00 0.000000e+00 1.000000e+00
      outer loop
         vertex 3.966249e+01 -3.966249e+01 6.000000e+01
         vertex 4.663815e+01 -3.116262e+01 6.000000e+01
         vertex -3.966249e+01 -3.966249e+01 6.000000e+01
      endloop
   endfacet
   facet normal 0.000000e+00 0.000000e+00 1.000000e+00
      outer loop
         vertex -3.966249e+01 -3.966249e+01 6.000000e+01
         vertex 4.663815e+01 -3.116262e+01 6.000000e+01
         vertex -4.663815e+01 -3.116262e+01 6.000000e+01
      endloop
   endfacet
   facet normal 0.000000e+00 0.000000e+00 1.000000e+00
      outer loop
         vertex 4.663815e+01 -3.116262e+01 6.000000e+01
         vertex 5.182154e+01 -2.146518e+01 6.000000e+01
         vertex -4.663815e+01 -3.116262e+01 6.000000e+01
      endloop
   endfacet
   facet normal 0.000000e+00 0.000000e+00 1.000000e+00
      outer loop
         vertex -4.663815e+01 -3.116262e+01 6.000000e+01
         vertex 5.182154e+01 -2.146518e+01 6.000000e+01
         vertex -5.182154e+01 -2.146518e+01 6.000000e+01
      endloop
   endfacet
   facet normal 0.000000e+00 0.000000e+00 1.000000e+00
      outer loop
         vertex 5.182154e+01 -2.146518e+01 6.000000e+01
         vertex 5.501345e+01 -1.094286e+01 6.000000e+01
         vertex -5.182154e+01 -2.146518e+01 6.000000e+01
      endloop
   endfacet
   facet normal 0.000000e+00 0.000000e+00 1.000000e+00
      outer loop
         vertex -5.182154e+01 -2.146518e+01 6.000000e+01
         vertex 5.501345e+01 -1.094286e+01 6.000000e+01
         vertex -5.501345e+01 -1.094286e+01 6.000000e+01
      endloop
   endfacet
   facet normal 0.000000e+00 0.000000e+00 1.000000e+00
      outer loop
         vertex 5.501345e+01 -1.094286e+01 6.000000e+01
         vertex -1.013841e-15 -6.000000e+00 6.000000e+01
         vertex -5.501345e+01 -1.094286e+01 6.000000e+01
      endloop
   endfacet
   facet normal 0.000000e+00 0.000000e+00 1.000000e+00
      outer loop
         vertex -5.501345e+01 -1.094286e+01 6.000000e+01
         vertex -1.013841e-15 -6.000000e+00 6.000000e+01
         vertex -1.170542e+00 -5.884712e+00 6.000000e+01
      endloop
   endfacet
   facet normal 0.000000e+00 0.000000e+00 1.000000e+00
      outer loop
         vertex 5.501345e+01 1.094286e+01 6.000000e+01
         vertex 1.170542e+00 5.884712e+00 6.000000e+01
         vertex 2.296101e+00 5.543277e+00 6.000000e+01
      endloop
   endfacet
   facet normal 0.000000e+00 0.000000e+00 1.000000e+00
      outer loop
         vertex 5.501345e+01 1.094286e+01 6.000000e+01
         vertex 2.296101e+00 5.543277e+00 6.000000e+01
         vertex 3.333421e+00 4.988818e+00 6.000000e+01
      endloop
   endfacet
   facet normal 0.000000e+00 0.000000e+00 1.000000e+00
      outer loop
         vertex 5.501345e+01 1.094286e+01 6.000000e+01
         vertex 3.333421e+00 4.988818e+00 6.000000e+01
         vertex 4.242641e+00 4.242641e+00 6.000000e+01
      endloop
   endfacet
   facet normal 0.000000e+00 0.000000e+00 1.000000e+00
      outer loop
         vertex 5.501345e+01 1.094286e+01 6.000000e+01
         vertex 4.242641e+00 4.242641e+00 6.000000e+01
         vertex 4.988818e+00 3.333421e+00 6.000000e+01
      endloop
   endfacet
   facet normal 0.000000e+00 0.000000e+00 1.000000e+00
      outer loop
         vertex 5.501345e+01 1.094286e+01 6.000000e+01
         vertex 4.988818e+00 3.333421e+00 6.000000e+01
         vertex 5.543277e+00 2.296101e+00 6.000000e+01
      endloop
   endfacet
   facet normal 0.000000e+00 0.000000e+00 1.000000e+00
      outer loop
         vertex 5.501345e+01 1.094286e+01 6.000000e+01
         vertex 5.543277e+00 2.296101e+00 6.000000e+01
         vertex 5.884712e+00 1.170542e+00 6.000000e+01
      endloop
   endfacet
   facet normal 0.000000e+00 0.000000e+00 1.000000e+00
      outer loop
         vertex 5.501345e+01 1.094286e+01 6.000000e+01
         vertex 5.884712e+00 1.170542e+00 6.000000e+01
         vertex 6.000000e+00 2.720046e-15 6.000000e+01
      endloop
   endfacet
   facet normal 0.000000e+00 0.000000e+00 1.000000e+00
      outer loop
         vertex 5.501345e+01 1.094286e+01 6.000000e+01
         vertex 6.000000e+00 2.720046e-15 6.000000e+01
         vertex 5.609123e+01 -2.439653e-14 6.000000e+01
      endloop
   endfacet
   facet normal 0.000000e+00 0.000000e+00 1.000000e+00
      outer loop
         vertex 5.609123e+01 -2.439653e-14 6.000000e+01
         vertex 6.000000e+00 2.720046e-15 6.000000e+01
         vertex 5.884712e+00 -1.170542e+00 6.000000e+01
      endloop
   endfacet
   facet normal 0.000000e+00 0.000000e+00 1.000000e+00
      outer loop
         vertex 5.609123e+01 -2.439653e-14 6.000000e+01
         vertex 5.884712e+00 -1.170542e+00 6.000000e+01
         vertex 5.543277e+00 -2.296101e+00 6.000000e+01
      endloop
   endfacet
   facet normal 0.000000e+00 0.000000e+00 1.000000e+00
      outer loop
         vertex 5.609123e+01 -2.439653e-14 6.000000e+01
         vertex 5.543277e+00 -2.296101e+00 6.000000e+01
         vertex 4.988818e+00 -3.333421e+00 6.000000e+01
      endloop
   endfacet
   facet normal 0.000000e+00 0.000000e+00 1.000000e+00
      outer loop
         vertex 5.609123e+01 -2.439653e-14 6.000000e+01
         vertex 4.988818e+00 -3.333421e+00 6.000000e+01
         vertex 4.242641e+00 -4.242641e+00 6.000000e+01
      endloop
   endfacet
   facet normal 0.000000e+00 0.000000e+00 1.000000e+00
      outer loop
         vertex 5.609123e+01 -2.439653e-14 6.000000e+01
         vertex 4.242641e+00 -4.242641e+00 6.000000e+01
         vertex 3.333421e+00 -4.988818e+00 6.000000e+01
      endloop
   endfacet
   facet normal 0.000000e+00 0.000000e+00 1.000000e+00
      outer loop
         vertex 5.609123e+01 -2.439653e-14 6.000000e+01
         vertex 3.333421e+00 -4.988818e+00 6.000000e+01
         vertex 2.296101e+00 -5.543277e+00 6.000000e+01
      endloop
   endfacet
   facet normal 0.000000e+00 0.000000e+00 1.000000e+00
      outer loop
         vertex 5.609123e+01 -2.439653e-14 6.000000e+01
         vertex 2.296101e+00 -5.543277e+00 6.000000e+01
         vertex 1.170542e+00 -5.884712e+00 6.000000e+01
      endloop
   endfacet
   facet normal 0.000000e+00 0.000000e+00 1.000000e+00
      outer loop
         vertex 5.609123e+01 -2.439653e-14 6.000000e+01
         vertex 1.170542e+00 -5.884712e+00 6.000000e+01
         vertex 5.501345e+01 -1.094286e+01 6.000000e+01
      endloop
   endfacet
   facet normal 0.000000e+00 0.000000e+00 1.000000e+00
      outer loop
         vertex -1.013841e-15 -6.000000e+00 6.000000e+01
         vertex 5.501345e+01 -1.094286e+01 6.000000e+01
         vertex 1.170542e+00 -5.884712e+00 6.000000e+01
      endloop
   endfacet
   facet normal 0.000000e+00 0.000000e+00 -1.000000e+00
      outer loop
         vertex -1.557380e-14 -5.609123e+01 5.750000e+01
         vertex -1.094286e+01 -5.501345e+01 5.750000e+01
         vertex 1.094286e+01 -5.501345e+01 5.750000e+01
      endloop
   endfacet
   facet normal 0.000000e+00 0.000000e+00 -1.000000e+00
      outer loop
         vertex -1.094286e+01 -5.501345e+01 5.750000e+01
         vertex -2.146518e+01 -5.182154e+01 5.750000e+01
         vertex 1.094286e+01 -5.501345e+01 5.750000e+01
      endloop
   endfacet
   facet normal 0.000000e+00 0.000000e+00 -1.000000e+00
      outer loop
         vertex 1.094286e+01 -5.501345e+01 5.750000e+01
         vertex -2.146518e+01 -5.182154e+01 5.750000e+01
         vertex 2.146518e+01 -5.182154e+01 5.750000e+01
      endloop
   endfacet
   facet normal 0.000000e+00 0.000000e+00 -1.000000e+00
      outer loop
         vertex -2.146518e+01 -5.182154e+01 5.750000e+01
         vertex -3.116262e+01 -4.663815e+01 5.750000e+01
         vertex 2.146518e+01 -5.182154e+01 5.750000e+01
      endloop
   endfacet
   facet normal 0.000000e+00 0.000000e+00 -1.000000e+00
      outer loop
         vertex 2.146518e+01 -5.182154e+01 5.750000e+01
         vertex -3.116262e+01 -4.663815e+01 5.750000e+01
         vertex 3.116262e+01 -4.663815e+01 5.750000e+01
      endloop
   endfacet
   facet normal 0.000000e+00 0.000000e+00 -1.000000e+00
      outer loop
         vertex -3.116262e+01 -4.663815e+01 5.750000e+01
         vertex -3.966249e+01 -3.966249e+01 5.750000e+01
         vertex 3.116262e+01 -4.663815e+01 5.750000e+01
      endloop
   endfacet
   facet normal 0.000000e+00 0.000000e+00 -1.000000e+00
      outer loop
         vertex 3.116262e+01 -4.663815e+01 5.750000e+01
         vertex -3.966249e+01 -3.966249e+01 5.750000e+01
         vertex 3.966249e+01 -3.966249e+01 5.750000e+01
      endloop
   endfacet
   facet normal 0.000000e+00 0.000000e+00 -1.000000e+00
      outer loop
         vertex -3.966249e+01 -3.966249e+01 5.750000e+01
         vertex -4.663815e+01 -3.116262e+01 5.750000e+01
         vertex 3.966249e+01 -3.966249e+01 5.750000e+01
      endloop
   endfacet
   facet normal 0.000000e+00 0.000000e+00 -1.000000e+00
      outer loop
         vertex 3.966249e+01 -3.966249e+01 5.750000e+01
         vertex -4.663815e+01 -3.116262e+01 5.750000e+01
         vertex 4.663815e+01 -3.116262e+01 5.750000e+01
      endloop
   endfacet
   facet normal 0.000000e+00 0.000000e+00 -1.000000e+00
      outer loop
         vertex -4.663815e+01 -3.116262e+01 5.750000e+01
         vertex -5.182154e+01 -2.146518e+01 5.750000e+01
         vertex 4.663815e+01 -3.116262e+01 5.750000e+01
      endloop
   endfacet
   facet normal 0.000000e+00 0.000000e+00 -1.000000e+00
      outer loop
         vertex 4.663815e+01 -3.116262e+01 5.750000e+01
         vertex -5.182154e+01 -2.146518e+01 5.750000e+01
         vertex 5.182154e+01 -2.146518e+01 5.750000e+01
      endloop
   endfacet
   facet normal 0.000000e+00 0.000000e+00 -1.000000e+00
      outer loop
         vertex -5.182154e+01 -2.146518e+01 5.750000e+01
         vertex -5.501345e+01 -1.094286e+01 5.750000e+01
         vertex 5.182154e+01 -2.146518e+01 5.750000e+01
      endloop
   endfacet
   facet normal 0.000000e+00 0.000000e+00 -1.000000e+00
      outer loop
         vertex 5.182154e+01 -2.146518e+01 5.750000e+01
         vertex -5.501345e+01 -1.094286e+01 5.750000e+01
         vertex 5.501345e+01 -1.094286e+01 5.750000e+01
      endloop
   endfacet
   facet normal 0.000000e+00 0.000000e+00 -1.000000e+00
      outer loop
         vertex -5.501345e+01 -1.094286e+01 5.750000e+01
         vertex -1.114770e-15 -6.000000e+00 5.750000e+01
         vertex 5.501345e+01 -1.094286e+01 5.750000e+01
      endloop
   endfacet
   facet normal 0.000000e+00 0.000000e+00 -1.000000e+00
      outer loop
         vertex 5.501345e+01 -1.094286e+01 5.750000e+01
         vertex -1.114770e-15 -6.000000e+00 5.750000e+01
         vertex 1.170542e+00 -5.884712e+00 5.750000e+01
      endloop
   endfacet
   facet normal 0.000000e+00 0.000000e+00 -1.000000e+00
      outer loop
         vertex -5.501345e+01 -1.094286e+01 5.750000e+01
         vertex -5.609123e+01 3.165193e-14 5.750000e+01
         vertex -5.884712e+00 -1.170542e+00 5.750000e+01
      endloop
   endfacet
   facet normal 0.000000e+00 0.000000e+00 -1.000000e+00
      outer loop
         vertex -5.501345e+01 -1.094286e+01 5.750000e+01
         vertex -5.884712e+00 -1.170542e+00 5.750000e+01
         vertex -5.543277e+00 -2.296101e+00 5.750000e+01
      endloop
   endfacet
   facet normal 0.000000e+00 0.000000e+00 -1.000000e+00
      outer loop
         vertex -5.501345e+01 -1.094286e+01 5.750000e+01
         vertex -5.543277e+00 -2.296101e+00 5.750000e+01
         vertex -4.988818e+00 -3.333421e+00 5.750000e+01
      endloop
   endfacet
   facet normal 0.000000e+00 0.000000e+00 -1.000000e+00
      outer loop
         vertex -5.501345e+01 -1.094286e+01 5.750000e+01
         vertex -4.988818e+00 -3.333421e+00 5.750000e+01
         vertex -4.242641e+00 -4.242641e+00 5.750000e+01
      endloop
   endfacet
   facet normal 0.000000e+00 0.000000e+00 -1.000000e+00
      outer loop
         vertex -5.501345e+01 -1.094286e+01 5.750000e+01
         vertex -4.242641e+00 -4.242641e+00 5.750000e+01
         vertex -3.333421e+00 -4.988818e+00 5.750000e+01
      endloop
   endfacet
   facet normal 0.000000e+00 0.000000e+00 -1.000000e+00
      outer loop
         vertex -5.501345e+01 -1.094286e+01 5.750000e+01
         vertex -3.333421e+00 -4.988818e+00 5.750000e+01
         vertex -2.296101e+00 -5.543277e+00 5.750000e+01
      endloop
   endfacet
   facet normal 0.000000e+00 0.000000e+00 -1.000000e+00
      outer loop
         vertex -5.501345e+01 -1.094286e+01 5.750000e+01
         vertex -2.296101e+00 -5.543277e+00 5.750000e+01
         vertex -1.170542e+00 -5.884712e+00 5.750000e+01
      endloop
   endfacet
   facet normal 0.000000e+00 0.000000e+00 -1.000000e+00
      outer loop
         vertex -5.501345e+01 -1.094286e+01 5.750000e+01
         vertex -1.170542e+00 -5.884712e+00 5.750000e+01
         vertex -1.114770e-15 -6.000000e+00 5.750000e+01
      endloop
   endfacet
   facet normal 0.000000e+00 0.000000e+00 -1.000000e+00
      outer loop
         vertex -5.609123e+01 3.165193e-14 5.750000e+01
         vertex -5.501345e+01 1.094286e+01 5.750000e+01
         vertex -1.170542e+00 5.884712e+00 5.750000e+01
      endloop
   endfacet
   facet normal 0.000000e+00 0.000000e+00 -1.000000e+00
      outer loop
         vertex -5.609123e+01 3.165193e-14 5.750000e+01
         vertex -1.170542e+00 5.884712e+00 5.750000e+01
         vertex -2.296101e+00 5.543277e+00 5.750000e+01
      endloop
   endfacet
   facet normal 0.000000e+00 0.000000e+00 -1.000000e+00
      outer loop
         vertex -5.609123e+01 3.165193e-14 5.750000e+01
         vertex -2.296101e+00 5.543277e+00 5.750000e+01
         vertex -3.333421e+00 4.988818e+00 5.750000e+01
      endloop
   endfacet
   facet normal 0.000000e+00 0.000000e+00 -1.000000e+00
      outer loop
         vertex -5.609123e+01 3.165193e-14 5.750000e+01
         vertex -3.333421e+00 4.988818e+00 5.750000e+01
         vertex -4.242641e+00 4.242641e+00 5.750000e+01
      endloop
   endfacet
   facet normal 0.000000e+00 0.000000e+00 -1.000000e+00
      outer loop
         vertex -5.609123e+01 3.165193e-14 5.750000e+01
         vertex -4.242641e+00 4.242641e+00 5.750000e+01
         vertex -4.988818e+00 3.333421e+00 5.750000e+01
      endloop
   endfacet
   facet normal 0.000000e+00 0.000000e+00 -1.000000e+00
      outer loop
         vertex -5.609123e+01 3.165193e-14 5.750000e+01
         vertex -4.988818e+00 3.333421e+00 5.750000e+01
         vertex -5.543277e+00 2.296101e+00 5.750000e+01
      endloop
   endfacet
   facet normal 0.000000e+00 0.000000e+00 -1.000000e+00
      outer loop
         vertex -5.609123e+01 3.165193e-14 5.750000e+01
         vertex -5.543277e+00 2.296101e+00 5.750000e+01
         vertex -5.884712e+00 1.170542e+00 5.750000e+01
      endloop
   endfacet
   facet normal 0.000000e+00 0.000000e+00 -1.000000e+00
      outer loop
         vertex -5.609123e+01 3.165193e-14 5.750000e+01
         vertex -5.884712e+00 1.170542e+00 5.750000e+01
         vertex -6.000000e+00 1.231915e-15 5.750000e+01
      endloop
   endfacet
   facet normal 0.000000e+00 0.000000e+00 -1.000000e+00
      outer loop
         vertex -5.609123e+01 3.165193e-14 5.750000e+01
         vertex -6.000000e+00 1.231915e-15 5.750000e+01
         vertex -5.884712e+00 -1.170542e+00 5.750000e+01
      endloop
   endfacet
   facet normal 0.000000e+00 0.000000e+00 -1.000000e+00
      outer loop
         vertex 2.635006e-14 5.609123e+01 5.750000e+01
         vertex 1.094286e+01 5.501345e+01 5.750000e+01
         vertex -1.094286e+01 5.501345e+01 5.750000e+01
      endloop
   endfacet
   facet normal 0.000000e+00 0.000000e+00 -1.000000e+00
      outer loop
         vertex 1.094286e+01 5.501345e+01 5.750000e+01
         vertex 2.146518e+01 5.182154e+01 5.750000e+01
         vertex -1.094286e+01 5.501345e+01 5.750000e+01
      endloop
   endfacet
   facet normal 0.000000e+00 0.000000e+00 -1.000000e+00
      outer loop
         vertex -1.094286e+01 5.501345e+01 5.750000e+01
         vertex 2.146518e+01 5.182154e+01 5.750000e+01
         vertex -2.146518e+01 5.182154e+01 5.750000e+01
      endloop
   endfacet
   facet normal 0.000000e+00 0.000000e+00 -1.000000e+00
      outer loop
         vertex 2.146518e+01 5.182154e+01 5.750000e+01
         vertex 3.116262e+01 4.663815e+01 5.750000e+01
         vertex -2.146518e+01 5.182154e+01 5.750000e+01
      endloop
   endfacet
   facet normal 0.000000e+00 0.000000e+00 -1.000000e+00
      outer loop
         vertex -2.146518e+01 5.182154e+01 5.750000e+01
         vertex 3.116262e+01 4.663815e+01 5.750000e+01
         vertex -3.116262e+01 4.663815e+01 5.750000e+01
      endloop
   endfacet
   facet normal 0.000000e+00 0.000000e+00 -1.000000e+00
      outer loop
         vertex 3.116262e+01 4.663815e+01 5.750000e+01
         vertex 3.966249e+01 3.966249e+01 5.750000e+01
         vertex -3.116262e+01 4.663815e+01 5.750000e+01
      endloop
   endfacet
   facet normal 0.000000e+00 0.000000e+00 -1.000000e+00
      outer loop
         vertex -3.116262e+01 4.663815e+01 5.750000e+01
         vertex 3.966249e+01 3.966249e+01 5.750000e+01
         vertex -3.966249e+01 3.966249e+01 5.750000e+01
      endloop
   endfacet
   facet normal 0.000000e+00 0.000000e+00 -1.000000e+00
      outer loop
         vertex 3.966249e+01 3.966249e+01 5.750000e+01
         vertex 4.663815e+01 3.116262e+01 5.750000e+01
         vertex -3.966249e+01 3.966249e+01 5.750000e+01
      endloop
   endfacet
   facet normal 0.000000e+00 0.000000e+00 -1.000000e+00
      outer loop
         vertex -3.966249e+01 3.966249e+01 5.750000e+01
         vertex 4.663815e+01 3.116262e+01 5.750000e+01
         vertex -4.663815e+01 3.116262e+01 5.750000e+01
      endloop
   endfacet
   facet normal 0.000000e+00 0.000000e+00 -1.000000e+00
      outer loop
         vertex 4.663815e+01 3.116262e+01 5.750000e+01
         vertex 5.182154e+01 2.146518e+01 5.750000e+01
         vertex -4.663815e+01 3.116262e+01 5.750000e+01
      endloop
   endfacet
   facet normal 0.000000e+00 0.000000e+00 -1.000000e+00
      outer loop
         vertex -4.663815e+01 3.116262e+01 5.750000e+01
         vertex 5.182154e+01 2.146518e+01 5.750000e+01
         vertex -5.182154e+01 2.146518e+01 5.750000e+01
      endloop
   endfacet
   facet normal 0.000000e+00 0.000000e+00 -1.000000e+00
      outer loop
         vertex 5.182154e+01 2.146518e+01 5.750000e+01
         vertex 5.501345e+01 1.094286e+01 5.750000e+01
         vertex -5.182154e+01 2.146518e+01 5.750000e+01
      endloop
   endfacet
   facet normal 0.000000e+00 0.000000e+00 -1.000000e+00
      outer loop
         vertex -5.182154e+01 2.146518e+01 5.750000e+01
         vertex 5.501345e+01 1.094286e+01 5.750000e+01
         vertex -5.501345e+01 1.094286e+01 5.750000e+01
      endloop
   endfacet
   facet normal 0.000000e+00 0.000000e+00 -1.000000e+00
      outer loop
         vertex 5.501345e+01 1.094286e+01 5.750000e+01
         vertex 9.179582e-16 6.000000e+00 5.750000e+01
         vertex -5.501345e+01 1.094286e+01 5.750000e+01
      endloop
   endfacet
   facet normal 0.000000e+00 0.000000e+00 -1.000000e+00
      outer loop
         vertex -5.501345e+01 1.094286e+01 5.750000e+01
         vertex 9.179582e-16 6.000000e+00 5.750000e+01
         vertex -1.170542e+00 5.884712e+00 5.750000e+01
      endloop
   endfacet
   facet normal 0.000000e+00 0.000000e+00 -1.000000e+00
      outer loop
         vertex 5.501345e+01 -1.094286e+01 5.750000e+01
         vertex 1.170542e+00 -5.884712e+00 5.750000e+01
         vertex 2.296101e+00 -5.543277e+00 5.750000e+01
      endloop
   endfacet
   facet normal 0.000000e+00 0.000000e+00 -1.000000e+00
      outer loop
         vertex 5.501345e+01 -1.094286e+01 5.750000e+01
         vertex 2.296101e+00 -5.543277e+00 5.750000e+01
         vertex 3.333421e+00 -4.988818e+00 5.750000e+01
      endloop
   endfacet
   facet normal 0.000000e+00 0.000000e+00 -1.000000e+00
      outer loop
         vertex 5.501345e+01 -1.094286e+01 5.750000e+01
         vertex 3.333421e+00 -4.988818e+00 5.750000e+01
         vertex 4.242641e+00 -4.242641e+00 5.750000e+01
      endloop
   endfacet
   facet normal 0.000000e+00 0.000000e+00 -1.000000e+00
      outer loop
         vertex 5.501345e+01 -1.094286e+01 5.750000e+01
         vertex 4.242641e+00 -4.242641e+00 5.750000e+01
         vertex 4.988818e+00 -3.333421e+00 5.750000e+01
      endloop
   endfacet
   facet normal 0.000000e+00 0.000000e+00 -1.000000e+00
      outer loop
         vertex 5.501345e+01 -1.094286e+01 5.750000e+01
         vertex 4.988818e+00 -3.333421e+00 5.750000e+01
         vertex 5.543277e+00 -2.296101e+00 5.750000e+01
      endloop
   endfacet
   facet normal 0.000000e+00 0.000000e+00 -1.000000e+00
      outer loop
         vertex 5.501345e+01 -1.094286e+01 5.750000e+01
         vertex 5.543277e+00 -2.296101e+00 5.750000e+01
         vertex 5.884712e+00 -1.170542e+00 5.750000e+01
      endloop
   endfacet
   facet normal 0.000000e+00 0.000000e+00 -1.000000e+00
      outer loop
         vertex 5.501345e+01 -1.094286e+01 5.750000e+01
         vertex 5.884712e+00 -1.170542e+00 5.750000e+01
         vertex 6.000000e+00 -1.168207e-15 5.750000e+01
      endloop
   endfacet
   facet normal 0.000000e+00 0.000000e+00 -1.000000e+00
      outer loop
         vertex 5.501345e+01 -1.094286e+01 5.750000e+01
         vertex 6.000000e+00 -1.168207e-15 5.750000e+01
         vertex 5.609123e+01 -1.725925e-14 5.750000e+01
      endloop
   endfacet
   facet normal 0.000000e+00 0.000000e+00 -1.000000e+00
      outer loop
         vertex 5.609123e+01 -1.725925e-14 5.750000e+01
         vertex 6.000000e+00 -1.168207e-15 5.750000e+01
         vertex 5.884712e+00 1.170542e+00 5.750000e+01
      endloop
   endfacet
   facet normal 0.000000e+00 0.000000e+00 -1.000000e+00
      outer loop
         vertex 5.609123e+01 -1.725925e-14 5.750000e+01
         vertex 5.884712e+00 1.170542e+00 5.750000e+01
         vertex 5.543277e+00 2.296101e+00 5.750000e+01
      endloop
   endfacet
   facet normal 0.000000e+00 0.000000e+00 -1.000000e+00
      outer loop
         vertex 5.609123e+01 -1.725925e-14 5.750000e+01
         vertex 5.543277e+00 2.296101e+00 5.750000e+01
         vertex 4.988818e+00 3.333421e+00 5.750000e+01
      endloop
   endfacet
   facet normal 0.000000e+00 0.000000e+00 -1.000000e+00
      outer loop
         vertex 5.609123e+01 -1.725925e-14 5.750000e+01
         vertex 4.988818e+00 3.333421e+00 5.750000e+01
         vertex 4.242641e+00 4.242641e+00 5.750000e+01
      endloop
   endfacet
   facet normal 0.000000e+00 0.000000e+00 -1.000000e+00
      outer loop
         vertex 5.609123e+01 -1.725925e-14 5.750000e+01
         vertex 4.242641e+00 4.242641e+00 5.750000e+01
         vertex 3.333421e+00 4.988818e+00 5.750000e+01
      endloop
   endfacet
   facet normal 0.000000e+00 0.000000e+00 -1.000000e+00
      outer loop
         vertex 5.609123e+01 -1.725925e-14 5.750000e+01
         vertex 3.333421e+00 4.988818e+00 5.750000e+01
         vertex 2.296101e+00 5.543277e+00 5.750000e+01
      endloop
   endfacet
   facet normal 0.000000e+00 0.000000e+00 -1.000000e+00
      outer loop
         vertex 5.609123e+01 -1.725925e-14 5.750000e+01
         vertex 2.296101e+00 5.543277e+00 5.750000e+01
         vertex 1.170542e+00 5.884712e+00 5.750000e+01
      endloop
   endfacet
   facet normal 0.000000e+00 0.000000e+00 -1.000000e+00
      outer loop
         vertex 5.609123e+01 -1.725925e-14 5.750000e+01
         vertex 1.170542e+00 5.884712e+00 5.750000e+01
         vertex 5.501345e+01 1.094286e+01 5.750000e+01
      endloop
   endfacet
   facet normal 0.000000e+00 0.000000e+00 -1.000000e+00
      outer loop
         vertex 9.179582e-16 6.000000e+00 5.750000e+01
         vertex 5.501345e+01 1.094286e+01 5.750000e+01
         vertex 1.170542e+00 5.884712e+00 5.750000e+01
      endloop
   endfacet
   facet normal 9.801714e-02 -9.951847e-01 0.000000e+00
      outer loop
         vertex -2.404218e-14 -5.609123e+01 5.750000e+01
         vertex 1.094286e+01 -5.501345e+01 6.000000e+01
         vertex -2.404218e-14 -5.609123e+01 6.000000e+01
      endloop
   endfacet
   facet normal 9.801714e-02 -9.951847e-01 0.000000e+00
      outer loop
         vertex -2.404218e-14 -5.609123e+01 5.750000e+01
         vertex 1.094286e+01 -5.501345e+01 5.750000e+01
         vertex 1.094286e+01 -5.501345e+01 6.000000e+01
      endloop
   endfacet
   facet normal 2.902847e-01 -9.569403e-01 0.000000e+00
      outer loop
         vertex 1.094286e+01 -5.501345e+01 5.750000e+01
         vertex 2.146518e+01 -5.182154e+01 6.000000e+01
         vertex 1.094286e+01 -5.501345e+01 6.000000e+01
      endloop
   endfacet
   facet normal 2.902847e-01 -9.569403e-01 0.000000e+00
      outer loop
         vertex 1.094286e+01 -5.501345e+01 5.750000e+01
         vertex 2.146518e+01 -5.182154e+01 5.750000e+01
         vertex 2.146518e+01 -5.182154e+01 6.000000e+01
      endloop
   endfacet
   facet normal 4.713967e-01 -8.819213e-01 0.000000e+00
      outer loop
         vertex 2.146518e+01 -5.182154e+01 5.750000e+01
         vertex 3.116262e+01 -4.663815e+01 6.000000e+01
         vertex 2.146518e+01 -5.182154e+01 6.000000e+01
      endloop
   endfacet
   facet normal 4.713967e-01 -8.819213e-01 0.000000e+00
      outer loop
         vertex 2.146518e+01 -5.182154e+01 5.750000e+01
         vertex 3.116262e+01 -4.663815e+01 5.750000e+01
         vertex 3.116262e+01 -4.663815e+01 6.000000e+01
      endloop
   endfacet
   facet normal 6.343933e-01 -7.730105e-01 0.000000e+00
      outer loop
         vertex 3.116262e+01 -4.663815e+01 5.750000e+01
         vertex 3.966249e+01 -3.966249e+01 6.000000e+01
         vertex 3.116262e+01 -4.663815e+01 6.000000e+01
      endloop
   endfacet
   facet normal 6.343933e-01 -7.730105e-01 0.000000e+00
      outer loop
         vertex 3.116262e+01 -4.663815e+01 5.750000e+01
         vertex 3.966249e+01 -3.966249e+01 5.750000e+01
         vertex 3.966249e+01 -3.966249e+01 6.000000e+01
      endloop
   endfacet
   facet normal 7.730105e-01 -6.343933e-01 0.000000e+00
      outer loop
         vertex 3.966249e+01 -3.966249e+01 5.750000e+01
         vertex 4.663815e+01 -3.116262e+01 6.000000e+01
         vertex 3.966249e+01 -3.966249e+01 6.000000e+01
      endloop
   endfacet
   facet normal 7.730105e-01 -6.343933e-01 0.000000e+00
      outer loop
         vertex 3.966249e+01 -3.966249e+01 5.750000e+01
         vertex 4.663815e+01 -3.116262e+01 5.750000e+01
         vertex 4.663815e+01 -3.116262e+01 6.000000e+01
      endloop
   endfacet
   facet normal 8.819213e-01 -4.713967e-01 0.000000e+00
      outer loop
         vertex 4.663815e+01 -3.116262e+01 5.750000e+01
         vertex 5.182154e+01 -2.146518e+01 6.000000e+01
         vertex 4.663815e+01 -3.116262e+01 6.000000e+01
      endloop
   endfacet
   facet normal 8.819213e-01 -4.713967e-01 0.000000e+00
      outer loop
         vertex 4.663815e+01 -3.116262e+01 5.750000e+01
         vertex 5.182154e+01 -2.146518e+01 5.750000e+01
         vertex 5.182154e+01 -2.146518e+01 6.000000e+01
      endloop
   endfacet
   facet normal 9.569403e-01 -2.902847e-01 0.000000e+00
      outer loop
         vertex 5.182154e+01 -2.146518e+01 5.750000e+01
         vertex 5.501345e+01 -1.094286e+01 6.000000e+01
         vertex 5.182154e+01 -2.146518e+01 6.000000e+01
      endloop
   endfacet
   facet normal 9.569403e-01 -2.902847e-01 0.000000e+00
      outer loop
         vertex 5.182154e+01 -2.146518e+01 5.750000e+01
         vertex 5.501345e+01 -1.094286e+01 5.750000e+01
         vertex 5.501345e+01 -1.094286e+01 6.000000e+01
      endloop
   endfacet
   facet normal 9.951847e-01 -9.801714e-02 0.000000e+00
      outer loop
         vertex 5.501345e+01 -1.094286e+01 5.750000e+01
         vertex 5.609123e+01 -2.131628e-14 6.000000e+01
         vertex 5.501345e+01 -1.094286e+01 6.000000e+01
      endloop
   endfacet
   facet normal 9.951847e-01 -9.801714e-02 0.000000e+00
      outer loop
         vertex 5.501345e+01 -1.094286e+01 5.750000e+01
         vertex 5.609123e+01 -2.131628e-14 5.750000e+01
         vertex 5.609123e+01 -2.131628e-14 6.000000e+01
      endloop
   endfacet
   facet normal 9.951847e-01 9.801714e-02 0.000000e+00
      outer loop
         vertex 5.609123e+01 -2.131628e-14 5.750000e+01
         vertex 5.501345e+01 1.094286e+01 6.000000e+01
         vertex 5.609123e+01 -2.131628e-14 6.000000e+01
      endloop
   endfacet
   facet normal 9.951847e-01 9.801714e-02 0.000000e+00
      outer loop
         vertex 5.609123e+01 -2.131628e-14 5.750000e+01
         vertex 5.501345e+01 1.094286e+01 5.750000e+01
         vertex 5.501345e+01 1.094286e+01 6.000000e+01
      endloop
   endfacet
   facet normal 9.569403e-01 2.902847e-01 0.000000e+00
      outer loop
         vertex 5.501345e+01 1.094286e+01 5.750000e+01
         vertex 5.182154e+01 2.146518e+01 6.000000e+01
         vertex 5.501345e+01 1.094286e+01 6.000000e+01
      endloop
   endfacet
   facet normal 9.569403e-01 2.902847e-01 0.000000e+00
      outer loop
         vertex 5.501345e+01 1.094286e+01 5.750000e+01
         vertex 5.182154e+01 2.146518e+01 5.750000e+01
         vertex 5.182154e+01 2.146518e+01 6.000000e+01
      endloop
   endfacet
   facet normal 8.819213e-01 4.713967e-01 0.000000e+00
      outer loop
         vertex 5.182154e+01 2.146518e+01 5.750000e+01
         vertex 4.663815e+01 3.116262e+01 6.000000e+01
         vertex 5.182154e+01 2.146518e+01 6.000000e+01
      endloop
   endfacet
   facet normal 8.819213e-01 4.713967e-01 0.000000e+00
      outer loop
         vertex 5.182154e+01 2.146518e+01 5.750000e+01
         vertex 4.663815e+01 3.116262e+01 5.750000e+01
         vertex 4.663815e+01 3.116262e+01 6.000000e+01
      endloop
   endfacet
   facet normal 7.730105e-01 6.343933e-01 0.000000e+00
      outer loop
         vertex 4.663815e+01 3.116262e+01 5.750000e+01
         vertex 3.966249e+01 3.966249e+01 6.000000e+01
         vertex 4.663815e+01 3.116262e+01 6.000000e+01
      endloop
   endfacet
   facet normal 7.730105e-01 6.343933e-01 0.000000e+00
      outer loop
         vertex 4.663815e+01 3.116262e+01 5.750000e+01
         vertex 3.966249e+01 3.966249e+01 5.750000e+01
         vertex 3.966249e+01 3.966249e+01 6.000000e+01
      endloop
   endfacet
   facet normal 6.343933e-01 7.730105e-01 0.000000e+00
      outer loop
         vertex 3.966249e+01 3.966249e+01 5.750000e+01
         vertex 3.116262e+01 4.663815e+01 6.000000e+01
         vertex 3.966249e+01 3.966249e+01 6.000000e+01
      endloop
   endfacet
   facet normal 6.343933e-01 7.730105e-01 0.000000e+00
      outer loop
         vertex 3.966249e+01 3.966249e+01 5.750000e+01
         vertex 3.116262e+01 4.663815e+01 5.750000e+01
         vertex 3.116262e+01 4.663815e+01 6.000000e+01
      endloop
   endfacet
   facet normal 4.713967e-01 8.819213e-01 0.000000e+00
      outer loop
         vertex 3.116262e+01 4.663815e+01 5.750000e+01
         vertex 2.146518e+01 5.182154e+01 6.000000e+01
         vertex 3.116262e+01 4.663815e+01 6.000000e+01
      endloop
   endfacet
   facet normal 4.713967e-01 8.819213e-01 0.000000e+00
      outer loop
         vertex 3.116262e+01 4.663815e+01 5.750000e+01
         vertex 2.146518e+01 5.182154e+01 5.750000e+01
         vertex 2.146518e+01 5.182154e+01 6.000000e+01
      endloop
   endfacet
   facet normal 2.902847e-01 9.569403e-01 0.000000e+00
      outer loop
         vertex 2.146518e+01 5.182154e+01 5.750000e+01
         vertex 1.094286e+01 5.501345e+01 6.000000e+01
         vertex 2.146518e+01 5.182154e+01 6.000000e+01
      endloop
   endfacet
   facet normal 2.902847e-01 9.569403e-01 0.000000e+00
      outer loop
         vertex 2.146518e+01 5.182154e+01 5.750000e+01
         vertex 1.094286e+01 5.501345e+01 5.750000e+01
         vertex 1.094286e+01 5.501345e+01 6.000000e+01
      endloop
   endfacet
   facet normal 9.801714e-02 9.951847e-01 0.000000e+00
      outer loop
         vertex 1.094286e+01 5.501345e+01 5.750000e+01
         vertex 3.375078e-14 5.609123e+01 6.000000e+01
         vertex 1.094286e+01 5.501345e+01 6.000000e+01
      endloop
   endfacet
   facet normal 9.801714e-02 9.951847e-01 0.000000e+00
      outer loop
         vertex 1.094286e+01 5.501345e+01 5.750000e+01
         vertex 3.375078e-14 5.609123e+01 5.750000e+01
         vertex 3.375078e-14 5.609123e+01 6.000000e+01
      endloop
   endfacet
   facet normal -9.801714e-02 9.951847e-01 0.000000e+00
      outer loop
         vertex 1.717299e-14 5.609123e+01 5.750000e+01
         vertex -1.094286e+01 5.501345e+01 6.000000e+01
         vertex 1.717299e-14 5.609123e+01 6.000000e+01
      endloop
   endfacet
   facet normal -9.801714e-02 9.951847e-01 0.000000e+00
      outer loop
         vertex 1.717299e-14 5.609123e+01 5.750000e+01
         vertex -1.094286e+01 5.501345e+01 5.750000e+01
         vertex -1.094286e+01 5.501345e+01 6.000000e+01
      endloop
   endfacet
   facet normal -2.902847e-01 9.569403e-01 0.000000e+00
      outer loop
         vertex -1.094286e+01 5.501345e+01 5.750000e+01
         vertex -2.146518e+01 5.182154e+01 6.000000e+01
         vertex -1.094286e+01 5.501345e+01 6.000000e+01
      endloop
   endfacet
   facet normal -2.902847e-01 9.569403e-01 0.000000e+00
      outer loop
         vertex -1.094286e+01 5.501345e+01 5.750000e+01
         vertex -2.146518e+01 5.182154e+01 5.750000e+01
         vertex -2.146518e+01 5.182154e+01 6.000000e+01
      endloop
   endfacet
   facet normal -4.713967e-01 8.819213e-01 0.000000e+00
      outer loop
         vertex -2.146518e+01 5.182154e+01 5.750000e+01
         vertex -3.116262e+01 4.663815e+01 6.000000e+01
         vertex -2.146518e+01 5.182154e+01 6.000000e+01
      endloop
   endfacet
   facet normal -4.713967e-01 8.819213e-01 0.000000e+00
      outer loop
         vertex -2.146518e+01 5.182154e+01 5.750000e+01
         vertex -3.116262e+01 4.663815e+01 5.750000e+01
         vertex -3.116262e+01 4.663815e+01 6.000000e+01
      endloop
   endfacet
   facet normal -6.343933e-01 7.730105e-01 0.000000e+00
      outer loop
         vertex -3.116262e+01 4.663815e+01 5.750000e+01
         vertex -3.966249e+01 3.966249e+01 6.000000e+01
         vertex -3.116262e+01 4.663815e+01 6.000000e+01
      endloop
   endfacet
   facet normal -6.343933e-01 7.730105e-01 0.000000e+00
      outer loop
         vertex -3.116262e+01 4.663815e+01 5.750000e+01
         vertex -3.966249e+01 3.966249e+01 5.750000e+01
         vertex -3.966249e+01 3.966249e+01 6.000000e+01
      endloop
   endfacet
   facet normal -7.730105e-01 6.343933e-01 0.000000e+00
      outer loop
         vertex -3.966249e+01 3.966249e+01 5.750000e+01
         vertex -4.663815e+01 3.116262e+01 6.000000e+01
         vertex -3.966249e+01 3.966249e+01 6.000000e+01
      endloop
   endfacet
   facet normal -7.730105e-01 6.343933e-01 0.000000e+00
      outer loop
         vertex -3.966249e+01 3.966249e+01 5.750000e+01
         vertex -4.663815e+01 3.116262e+01 5.750000e+01
         vertex -4.663815e+01 3.116262e+01 6.000000e+01
      endloop
   endfacet
   facet normal -8.819213e-01 4.713967e-01 0.000000e+00
      outer loop
         vertex -4.663815e+01 3.116262e+01 5.750000e+01
         vertex -5.182154e+01 2.146518e+01 6.000000e+01
         vertex -4.663815e+01 3.116262e+01 6.000000e+01
      endloop
   endfacet
   facet normal -8.819213e-01 4.713967e-01 0.000000e+00
      outer loop
         vertex -4.663815e+01 3.116262e+01 5.750000e+01
         vertex -5.182154e+01 2.146518e+01 5.750000e+01
         vertex -5.182154e+01 2.146518e+01 6.000000e+01
      endloop
   endfacet
   facet normal -9.569403e-01 2.902847e-01 0.000000e+00
      outer loop
         vertex -5.182154e+01 2.146518e+01 5.750000e+01
         vertex -5.501345e+01 1.094286e+01 6.000000e+01
         vertex -5.182154e+01 2.146518e+01 6.000000e+01
      endloop
   endfacet
   facet normal -9.569403e-01 2.902847e-01 0.000000e+00
      outer loop
         vertex -5.182154e+01 2.146518e+01 5.750000e+01
         vertex -5.501345e+01 1.094286e+01 5.750000e+01
         vertex -5.501345e+01 1.094286e+01 6.000000e+01
      endloop
   endfacet
   facet normal -9.951847e-01 9.801714e-02 0.000000e+00
      outer loop
         vertex -5.501345e+01 1.094286e+01 5.750000e+01
         vertex -5.609123e+01 1.421085e-14 6.000000e+01
         vertex -5.501345e+01 1.094286e+01 6.000000e+01
      endloop
   endfacet
   facet normal -9.951847e-01 9.801714e-02 0.000000e+00
      outer loop
         vertex -5.501345e+01 1.094286e+01 5.750000e+01
         vertex -5.609123e+01 1.421085e-14 5.750000e+01
         vertex -5.609123e+01 1.421085e-14 6.000000e+01
      endloop
   endfacet
   facet normal -9.951847e-01 -9.801714e-02 -0.000000e+00
      outer loop
         vertex -5.609123e+01 1.421085e-14 5.750000e+01
         vertex -5.501345e+01 -1.094286e+01 6.000000e+01
         vertex -5.609123e+01 1.421085e-14 6.000000e+01
      endloop
   endfacet
   facet normal -9.951847e-01 -9.801714e-02 -0.000000e+00
      outer loop
         vertex -5.609123e+01 1.421085e-14 5.750000e+01
         vertex -5.501345e+01 -1.094286e+01 5.750000e+01
         vertex -5.501345e+01 -1.094286e+01 6.000000e+01
      endloop
   endfacet
   facet normal -9.569403e-01 -2.902847e-01 -0.000000e+00
      outer loop
         vertex -5.501345e+01 -1.094286e+01 5.750000e+01
         vertex -5.182154e+01 -2.146518e+01 6.000000e+01
         vertex -5.501345e+01 -1.094286e+01 6.000000e+01
      endloop
   endfacet
   facet normal -9.569403e-01 -2.902847e-01 -0.000000e+00
      outer loop
         vertex -5.501345e+01 -1.094286e+01 5.750000e+01
         vertex -5.182154e+01 -2.146518e+01 5.750000e+01
         vertex -5.182154e+01 -2.146518e+01 6.000000e+01
      endloop
   endfacet
   facet normal -8.819213e-01 -4.713967e-01 -0.000000e+00
      outer loop
         vertex -5.182154e+01 -2.146518e+01 5.750000e+01
         vertex -4.663815e+01 -3.116262e+01 6.000000e+01
         vertex -5.182154e+01 -2.146518e+01 6.000000e+01
      endloop
   endfacet
   facet normal -8.819213e-01 -4.713967e-01 -0.000000e+00
      outer loop
         vertex -5.182154e+01 -2.146518e+01 5.750000e+01
         vertex -4.663815e+01 -3.116262e+01 5.750000e+01
         vertex -4.663815e+01 -3.116262e+01 6.000000e+01
      endloop
   endfacet
   facet normal -7.730105e-01 -6.343933e-01 -0.000000e+00
      outer loop
         vertex -4.663815e+01 -3.116262e+01 5.750000e+01
         vertex -3.966249e+01 -3.966249e+01 6.000000e+01
         vertex -4.663815e+01 -3.116262e+01 6.000000e+01
      endloop
   endfacet
   facet normal -7.730105e-01 -6.343933e-01 -0.000000e+00
      outer loop
         vertex -4.663815e+01 -3.116262e+01 5.750000e+01
         vertex -3.966249e+01 -3.966249e+01 5.750000e+01
         vertex -3.966249e+01 -3.966249e+01 6.000000e+01
      endloop
   endfacet
   facet normal -6.343933e-01 -7.730105e-01 -0.000000e+00
      outer loop
         vertex -3.966249e+01 -3.966249e+01 5.750000e+01
         vertex -3.116262e+01 -4.663815e+01 6.000000e+01
         vertex -3.966249e+01 -3.966249e+01 6.000000e+01
      endloop
   endfacet
   facet normal -6.343933e-01 -7.730105e-01 -0.000000e+00
      outer loop
         vertex -3.966249e+01 -3.966249e+01 5.750000e+01
         vertex -3.116262e+01 -4.663815e+01 5.750000e+01
         vertex -3.116262e+01 -4.663815e+01 6.000000e+01
      endloop
   endfacet
   facet normal -4.713967e-01 -8.819213e-01 -0.000000e+00
      outer loop
         vertex -3.116262e+01 -4.663815e+01 5.750000e+01
         vertex -2.146518e+01 -5.182154e+01 6.000000e+01
         vertex -3.116262e+01 -4.663815e+01 6.000000e+01
      endloop
   endfacet
   facet normal -4.713967e-01 -8.819213e-01 -0.000000e+00
      outer loop
         vertex -3.116262e+01 -4.663815e+01 5.750000e+01
         vertex -2.146518e+01 -5.182154e+01 5.750000e+01
         vertex -2.146518e+01 -5.182154e+01 6.000000e+01
      endloop
   endfacet
   facet normal -2.902847e-01 -9.569403e-01 -0.000000e+00
      outer loop
         vertex -2.146518e+01 -5.182154e+01 5.750000e+01
         vertex -1.094286e+01 -5.501345e+01 6.000000e+01
         vertex -2.146518e+01 -5.182154e+01 6.000000e+01
      endloop
   endfacet
   facet normal -2.902847e-01 -9.569403e-01 -0.000000e+00
      outer loop
         vertex -2.146518e+01 -5.182154e+01 5.750000e+01
         vertex -1.094286e+01 -5.501345e+01 5.750000e+01
         vertex -1.094286e+01 -5.501345e+01 6.000000e+01
      endloop
   endfacet
   facet normal -9.801714e-02 -9.951847e-01 -0.000000e+00
      outer loop
         vertex -1.094286e+01 -5.501345e+01 5.750000e+01
         vertex -2.664535e-14 -5.609123e+01 6.000000e+01
         vertex -1.094286e+01 -5.501345e+01 6.000000e+01
      endloop
   endfacet
   facet normal -9.801714e-02 -9.951847e-01 -0.000000e+00
      outer loop
         vertex -1.094286e+01 -5.501345e+01 5.750000e+01
         vertex -2.664535e-14 -5.609123e+01 5.750000e+01
         vertex -2.664535e-14 -5.609123e+01 6.000000e+01
      endloop
   endfacet
   facet normal -9.951847e-01 -9.801714e-02 8.035469e-17
      outer loop
         vertex 5.884712e+00 1.170542e+00 6.000000e+01
         vertex 6.000000e+00 -8.008131e-16 5.750000e+01
         vertex 6.000000e+00 -2.032729e-15 6.000000e+01
      endloop
   endfacet
   facet normal -9.951847e-01 -9.801714e-02 8.035469e-17
      outer loop
         vertex 5.884712e+00 1.170542e+00 6.000000e+01
         vertex 5.884712e+00 1.170542e+00 5.750000e+01
         vertex 6.000000e+00 -8.008131e-16 5.750000e+01
      endloop
   endfacet
   facet normal -9.569403e-01 -2.902847e-01 7.726671e-17
      outer loop
         vertex 5.543277e+00 2.296101e+00 6.000000e+01
         vertex 5.884712e+00 1.170542e+00 5.750000e+01
         vertex 5.884712e+00 1.170542e+00 6.000000e+01
      endloop
   endfacet
   facet normal -9.569403e-01 -2.902847e-01 7.726671e-17
      outer loop
         vertex 5.543277e+00 2.296101e+00 6.000000e+01
         vertex 5.543277e+00 2.296101e+00 5.750000e+01
         vertex 5.884712e+00 1.170542e+00 5.750000e+01
      endloop
   endfacet
   facet normal -8.819213e-01 -4.713967e-01 7.120940e-17
      outer loop
         vertex 4.988818e+00 3.333421e+00 6.000000e+01
         vertex 5.543277e+00 2.296101e+00 5.750000e+01
         vertex 5.543277e+00 2.296101e+00 6.000000e+01
      endloop
   endfacet
   facet normal -8.819213e-01 -4.713967e-01 7.120940e-17
      outer loop
         vertex 4.988818e+00 3.333421e+00 6.000000e+01
         vertex 4.988818e+00 3.333421e+00 5.750000e+01
         vertex 5.543277e+00 2.296101e+00 5.750000e+01
      endloop
   endfacet
   facet normal -7.730105e-01 -6.343933e-01 0.000000e+00
      outer loop
         vertex 4.242641e+00 4.242641e+00 6.000000e+01
         vertex 4.988818e+00 3.333421e+00 5.750000e+01
         vertex 4.988818e+00 3.333421e+00 6.000000e+01
      endloop
   endfacet
   facet normal -7.730105e-01 -6.343933e-01 0.000000e+00
      outer loop
         vertex 4.242641e+00 4.242641e+00 6.000000e+01
         vertex 4.242641e+00 4.242641e+00 5.750000e+01
         vertex 4.988818e+00 3.333421e+00 5.750000e+01
      endloop
   endfacet
   facet normal -6.343933e-01 -7.730105e-01 0.000000e+00
      outer loop
         vertex 3.333421e+00 4.988818e+00 6.000000e+01
         vertex 4.242641e+00 4.242641e+00 5.750000e+01
         vertex 4.242641e+00 4.242641e+00 6.000000e+01
      endloop
   endfacet
   facet normal -6.343933e-01 -7.730105e-01 0.000000e+00
      outer loop
         vertex 3.333421e+00 4.988818e+00 6.000000e+01
         vertex 3.333421e+00 4.988818e+00 5.750000e+01
         vertex 4.242641e+00 4.242641e+00 5.750000e+01
      endloop
   endfacet
   facet normal -4.713967e-01 -8.819213e-01 0.000000e+00
      outer loop
         vertex 2.296101e+00 5.543277e+00 6.000000e+01
         vertex 3.333421e+00 4.988818e+00 5.750000e+01
         vertex 3.333421e+00 4.988818e+00 6.000000e+01
      endloop
   endfacet
   facet normal -4.713967e-01 -8.819213e-01 0.000000e+00
      outer loop
         vertex 2.296101e+00 5.543277e+00 6.000000e+01
         vertex 2.296101e+00 5.543277e+00 5.750000e+01
         vertex 3.333421e+00 4.988818e+00 5.750000e+01
      endloop
   endfacet
   facet normal -2.902847e-01 -9.569403e-01 0.000000e+00
      outer loop
         vertex 1.170542e+00 5.884712e+00 6.000000e+01
         vertex 2.296101e+00 5.543277e+00 5.750000e+01
         vertex 2.296101e+00 5.543277e+00 6.000000e+01
      endloop
   endfacet
   facet normal -2.902847e-01 -9.569403e-01 0.000000e+00
      outer loop
         vertex 1.170542e+00 5.884712e+00 6.000000e+01
         vertex 1.170542e+00 5.884712e+00 5.750000e+01
         vertex 2.296101e+00 5.543277e+00 5.750000e+01
      endloop
   endfacet
   facet normal -9.801714e-02 -9.951847e-01 0.000000e+00
      outer loop
         vertex 1.018888e-15 6.000000e+00 6.000000e+01
         vertex 1.170542e+00 5.884712e+00 5.750000e+01
         vertex 1.170542e+00 5.884712e+00 6.000000e+01
      endloop
   endfacet
   facet normal -9.801714e-02 -9.951847e-01 0.000000e+00
      outer loop
         vertex 1.018888e-15 6.000000e+00 6.000000e+01
         vertex 9.179582e-16 6.000000e+00 5.750000e+01
         vertex 1.170542e+00 5.884712e+00 5.750000e+01
      endloop
   endfacet
   facet normal 9.801714e-02 -9.951847e-01 -1.153233e-19
      outer loop
         vertex -1.170542e+00 5.884712e+00 6.000000e+01
         vertex 9.179582e-16 6.000000e+00 5.750000e+01
         vertex 1.018888e-15 6.000000e+00 6.000000e+01
      endloop
   endfacet
   facet normal 9.801714e-02 -9.951847e-01 -1.153233e-19
      outer loop
         vertex -1.170542e+00 5.884712e+00 6.000000e+01
         vertex -1.170542e+00 5.884712e+00 5.750000e+01
         vertex 9.179582e-16 6.000000e+00 5.750000e+01
      endloop
   endfacet
   facet normal 2.902847e-01 -9.569403e-01 0.000000e+00
      outer loop
         vertex -2.296101e+00 5.543277e+00 6.000000e+01
         vertex -1.170542e+00 5.884712e+00 5.750000e+01
         vertex -1.170542e+00 5.884712e+00 6.000000e+01
      endloop
   endfacet
   facet normal 2.902847e-01 -9.569403e-01 0.000000e+00
      outer loop
         vertex -2.296101e+00 5.543277e+00 6.000000e+01
         vertex -2.296101e+00 5.543277e+00 5.750000e+01
         vertex -1.170542e+00 5.884712e+00 5.750000e+01
      endloop
   endfacet
   facet normal 4.713967e-01 -8.819213e-01 0.000000e+00
      outer loop
         vertex -3.333421e+00 4.988818e+00 6.000000e+01
         vertex -2.296101e+00 5.543277e+00 5.750000e+01
         vertex -2.296101e+00 5.543277e+00 6.000000e+01
      endloop
   endfacet
   facet normal 4.713967e-01 -8.819213e-01 0.000000e+00
      outer loop
         vertex -3.333421e+00 4.988818e+00 6.000000e+01
         vertex -3.333421e+00 4.988818e+00 5.750000e+01
         vertex -2.296101e+00 5.543277e+00 5.750000e+01
      endloop
   endfacet
   facet normal 6.343933e-01 -7.730105e-01 0.000000e+00
      outer loop
         vertex -4.242641e+00 4.242641e+00 6.000000e+01
         vertex -3.333421e+00 4.988818e+00 5.750000e+01
         vertex -3.333421e+00 4.988818e+00 6.000000e+01
      endloop
   endfacet
   facet normal 6.343933e-01 -7.730105e-01 0.000000e+00
      outer loop
         vertex -4.242641e+00 4.242641e+00 6.000000e+01
         vertex -4.242641e+00 4.242641e+00 5.750000e+01
         vertex -3.333421e+00 4.988818e+00 5.750000e+01
      endloop
   endfacet
   facet normal 7.730105e-01 -6.343933e-01 0.000000e+00
      outer loop
         vertex -4.988818e+00 3.333421e+00 6.000000e+01
         vertex -4.242641e+00 4.242641e+00 5.750000e+01
         vertex -4.242641e+00 4.242641e+00 6.000000e+01
      endloop
   endfacet
   facet normal 7.730105e-01 -6.343933e-01 0.000000e+00
      outer loop
         vertex -4.988818e+00 3.333421e+00 6.000000e+01
         vertex -4.988818e+00 3.333421e+00 5.750000e+01
         vertex -4.242641e+00 4.242641e+00 5.750000e+01
      endloop
   endfacet
   facet normal 8.819213e-01 -4.713967e-01 0.000000e+00
      outer loop
         vertex -5.543277e+00 2.296101e+00 6.000000e+01
         vertex -4.988818e+00 3.333421e+00 5.750000e+01
         vertex -4.988818e+00 3.333421e+00 6.000000e+01
      endloop
   endfacet
   facet normal 8.819213e-01 -4.713967e-01 0.000000e+00
      outer loop
         vertex -5.543277e+00 2.296101e+00 6.000000e+01
         vertex -5.543277e+00 2.296101e+00 5.750000e+01
         vertex -4.988818e+00 3.333421e+00 5.750000e+01
      endloop
   endfacet
   facet normal 9.569403e-01 -2.902847e-01 0.000000e+00
      outer loop
         vertex -5.884712e+00 1.170542e+00 6.000000e+01
         vertex -5.543277e+00 2.296101e+00 5.750000e+01
         vertex -5.543277e+00 2.296101e+00 6.000000e+01
      endloop
   endfacet
   facet normal 9.569403e-01 -2.902847e-01 0.000000e+00
      outer loop
         vertex -5.884712e+00 1.170542e+00 6.000000e+01
         vertex -5.884712e+00 1.170542e+00 5.750000e+01
         vertex -5.543277e+00 2.296101e+00 5.750000e+01
      endloop
   endfacet
   facet normal 9.951847e-01 -9.801714e-02 -1.978562e-18
      outer loop
         vertex -6.000000e+00 4.752775e-15 6.000000e+01
         vertex -5.884712e+00 1.170542e+00 5.750000e+01
         vertex -5.884712e+00 1.170542e+00 6.000000e+01
      endloop
   endfacet
   facet normal 9.951847e-01 -9.801714e-02 -1.978562e-18
      outer loop
         vertex -6.000000e+00 4.752775e-15 6.000000e+01
         vertex -6.000000e+00 2.032729e-15 5.750000e+01
         vertex -5.884712e+00 1.170542e+00 5.750000e+01
      endloop
   endfacet
   facet normal 9.951847e-01 9.801714e-02 -8.035469e-17
      outer loop
         vertex -5.884712e+00 -1.170542e+00 6.000000e+01
         vertex -6.000000e+00 8.645214e-16 5.750000e+01
         vertex -6.000000e+00 2.032729e-15 6.000000e+01
      endloop
   endfacet
   facet normal 9.951847e-01 9.801714e-02 -8.035469e-17
      outer loop
         vertex -5.884712e+00 -1.170542e+00 6.000000e+01
         vertex -5.884712e+00 -1.170542e+00 5.750000e+01
         vertex -6.000000e+00 8.645214e-16 5.750000e+01
      endloop
   endfacet
   facet normal 9.569403e-01 2.902847e-01 -7.140706e-17
      outer loop
         vertex -5.543277e+00 -2.296101e+00 6.000000e+01
         vertex -5.884712e+00 -1.170542e+00 5.750000e+01
         vertex -5.884712e+00 -1.170542e+00 6.000000e+01
      endloop
   endfacet
   facet normal 9.569403e-01 2.902847e-01 -7.140706e-17
      outer loop
         vertex -5.543277e+00 -2.296101e+00 6.000000e+01
         vertex -5.543277e+00 -2.296101e+00 5.750000e+01
         vertex -5.884712e+00 -1.170542e+00 5.750000e+01
      endloop
   endfacet
   facet normal 8.819213e-01 4.713967e-01 -7.120940e-17
      outer loop
         vertex -4.988818e+00 -3.333421e+00 6.000000e+01
         vertex -5.543277e+00 -2.296101e+00 5.750000e+01
         vertex -5.543277e+00 -2.296101e+00 6.000000e+01
      endloop
   endfacet
   facet normal 8.819213e-01 4.713967e-01 -7.120940e-17
      outer loop
         vertex -4.988818e+00 -3.333421e+00 6.000000e+01
         vertex -4.988818e+00 -3.333421e+00 5.750000e+01
         vertex -5.543277e+00 -2.296101e+00 5.750000e+01
      endloop
   endfacet
   facet normal 7.730105e-01 6.343933e-01 -1.248311e-16
      outer loop
         vertex -4.242641e+00 -4.242641e+00 6.000000e+01
         vertex -4.988818e+00 -3.333421e+00 5.750000e+01
         vertex -4.988818e+00 -3.333421e+00 6.000000e+01
      endloop
   endfacet
   facet normal 7.730105e-01 6.343933e-01 -1.248311e-16
      outer loop
         vertex -4.242641e+00 -4.242641e+00 6.000000e+01
         vertex -4.242641e+00 -4.242641e+00 5.750000e+01
         vertex -4.988818e+00 -3.333421e+00 5.750000e+01
      endloop
   endfacet
   facet normal 6.343933e-01 7.730105e-01 -1.024463e-16
      outer loop
         vertex -3.333421e+00 -4.988818e+00 6.000000e+01
         vertex -4.242641e+00 -4.242641e+00 5.750000e+01
         vertex -4.242641e+00 -4.242641e+00 6.000000e+01
      endloop
   endfacet
   facet normal 6.343933e-01 7.730105e-01 -1.024463e-16
      outer loop
         vertex -3.333421e+00 -4.988818e+00 6.000000e+01
         vertex -3.333421e+00 -4.988818e+00 5.750000e+01
         vertex -4.242641e+00 -4.242641e+00 5.750000e+01
      endloop
   endfacet
   facet normal 4.713967e-01 8.819213e-01 -7.612444e-17
      outer loop
         vertex -2.296101e+00 -5.543277e+00 6.000000e+01
         vertex -3.333421e+00 -4.988818e+00 5.750000e+01
         vertex -3.333421e+00 -4.988818e+00 6.000000e+01
      endloop
   endfacet
   facet normal 4.713967e-01 8.819213e-01 -7.612444e-17
      outer loop
         vertex -2.296101e+00 -5.543277e+00 6.000000e+01
         vertex -2.296101e+00 -5.543277e+00 5.750000e+01
         vertex -3.333421e+00 -4.988818e+00 5.750000e+01
      endloop
   endfacet
   facet normal 2.902847e-01 9.569403e-01 -4.687720e-17
      outer loop
         vertex -1.170542e+00 -5.884712e+00 6.000000e+01
         vertex -2.296101e+00 -5.543277e+00 5.750000e+01
         vertex -2.296101e+00 -5.543277e+00 6.000000e+01
      endloop
   endfacet
   facet normal 2.902847e-01 9.569403e-01 -4.687720e-17
      outer loop
         vertex -1.170542e+00 -5.884712e+00 6.000000e+01
         vertex -1.170542e+00 -5.884712e+00 5.750000e+01
         vertex -2.296101e+00 -5.543277e+00 5.750000e+01
      endloop
   endfacet
   facet normal 9.801714e-02 9.951847e-01 -9.618318e-17
      outer loop
         vertex -1.013841e-15 -6.000000e+00 6.000000e+01
         vertex -1.170542e+00 -5.884712e+00 5.750000e+01
         vertex -1.170542e+00 -5.884712e+00 6.000000e+01
      endloop
   endfacet
   facet normal 9.801714e-02 9.951847e-01 -9.618318e-17
      outer loop
         vertex -1.013841e-15 -6.000000e+00 6.000000e+01
         vertex -1.114770e-15 -6.000000e+00 5.750000e+01
         vertex -1.170542e+00 -5.884712e+00 5.750000e+01
      endloop
   endfacet
   facet normal -9.801714e-02 9.951847e-01 -1.467441e-16
      outer loop
         vertex 1.170542e+00 -5.884712e+00 6.000000e+01
         vertex -1.114770e-15 -6.000000e+00 5.750000e+01
         vertex -1.013841e-15 -6.000000e+00 6.000000e+01
      endloop
   endfacet
   facet normal -9.801714e-02 9.951847e-01 -1.467441e-16
      outer loop
         vertex 1.170542e+00 -5.884712e+00 6.000000e+01
         vertex 1.170542e+00 -5.884712e+00 5.750000e+01
         vertex -1.114770e-15 -6.000000e+00 5.750000e+01
      endloop
   endfacet
   facet normal -2.902847e-01 9.569403e-01 -1.252352e-16
      outer loop
         vertex 2.296101e+00 -5.543277e+00 6.000000e+01
         vertex 1.170542e+00 -5.884712e+00 5.750000e+01
         vertex 1.170542e+00 -5.884712e+00 6.000000e+01
      endloop
   endfacet
   facet normal -2.902847e-01 9.569403e-01 -1.252352e-16
      outer loop
         vertex 2.296101e+00 -5.543277e+00 6.000000e+01
         vertex 2.296101e+00 -5.543277e+00 5.750000e+01
         vertex 1.170542e+00 -5.884712e+00 5.750000e+01
      endloop
   endfacet
   facet normal -4.713967e-01 8.819213e-01 -1.043566e-16
      outer loop
         vertex 3.333421e+00 -4.988818e+00 6.000000e+01
         vertex 2.296101e+00 -5.543277e+00 5.750000e+01
         vertex 2.296101e+00 -5.543277e+00 6.000000e+01
      endloop
   endfacet
   facet normal -4.713967e-01 8.819213e-01 -1.043566e-16
      outer loop
         vertex 3.333421e+00 -4.988818e+00 6.000000e+01
         vertex 3.333421e+00 -4.988818e+00 5.750000e+01
         vertex 2.296101e+00 -5.543277e+00 5.750000e+01
      endloop
   endfacet
   facet normal -6.343933e-01 7.730105e-01 -9.921956e-17
      outer loop
         vertex 4.242641e+00 -4.242641e+00 6.000000e+01
         vertex 3.333421e+00 -4.988818e+00 5.750000e+01
         vertex 3.333421e+00 -4.988818e+00 6.000000e+01
      endloop
   endfacet
   facet normal -6.343933e-01 7.730105e-01 -9.921956e-17
      outer loop
         vertex 4.242641e+00 -4.242641e+00 6.000000e+01
         vertex 4.242641e+00 -4.242641e+00 5.750000e+01
         vertex 3.333421e+00 -4.988818e+00 5.750000e+01
      endloop
   endfacet
   facet normal -7.730105e-01 6.343933e-01 -4.003070e-17
      outer loop
         vertex 4.988818e+00 -3.333421e+00 6.000000e+01
         vertex 4.242641e+00 -4.242641e+00 5.750000e+01
         vertex 4.242641e+00 -4.242641e+00 6.000000e+01
      endloop
   endfacet
   facet normal -7.730105e-01 6.343933e-01 -4.003070e-17
      outer loop
         vertex 4.988818e+00 -3.333421e+00 6.000000e+01
         vertex 4.988818e+00 -3.333421e+00 5.750000e+01
         vertex 4.242641e+00 -4.242641e+00 5.750000e+01
      endloop
   endfacet
   facet normal -8.819213e-01 4.713967e-01 -4.915035e-18
      outer loop
         vertex 5.543277e+00 -2.296101e+00 6.000000e+01
         vertex 4.988818e+00 -3.333421e+00 5.750000e+01
         vertex 4.988818e+00 -3.333421e+00 6.000000e+01
      endloop
   endfacet
   facet normal -8.819213e-01 4.713967e-01 -4.915035e-18
      outer loop
         vertex 5.543277e+00 -2.296101e+00 6.000000e+01
         vertex 5.543277e+00 -2.296101e+00 5.750000e+01
         vertex 4.988818e+00 -3.333421e+00 5.750000e+01
      endloop
   endfacet
   facet normal -9.569403e-01 2.902847e-01 1.867021e-17
      outer loop
         vertex 5.884712e+00 -1.170542e+00 6.000000e+01
         vertex 5.543277e+00 -2.296101e+00 5.750000e+01
         vertex 5.543277e+00 -2.296101e+00 6.000000e+01
      endloop
   endfacet
   facet normal -9.569403e-01 2.902847e-01 1.867021e-17
      outer loop
         vertex 5.884712e+00 -1.170542e+00 6.000000e+01
         vertex 5.884712e+00 -1.170542e+00 5.750000e+01
         vertex 5.543277e+00 -2.296101e+00 5.750000e+01
      endloop
   endfacet
   facet normal -9.951847e-01 9.801714e-02 -1.978562e-17
      outer loop
         vertex 6.000000e+00 2.352652e-15 6.000000e+01
         vertex 5.884712e+00 -1.170542e+00 5.750000e+01
         vertex 5.884712e+00 -1.170542e+00 6.000000e+01
      endloop
   endfacet
   facet normal -9.951847e-01 9.801714e-02 -1.978562e-17
      outer loop
         vertex 6.000000e+00 2.352652e-15 6.000000e+01
         vertex 6.000000e+00 -2.032729e-15 5.750000e+01
         vertex 5.884712e+00 -1.170542e+00 5.750000e+01
      endloop
   endfacet
endsolid
