solid Rotor01
   facet normal 0.000000e+00 0.000000e+00 1.000000e+00
      outer loop
         vertex 3.460736e+00 2.003507e+01 3.250000e+01
         vertex 6.306023e+00 2.941472e+01 3.250000e+01
         vertex -2.500000e+00 3.099123e+01 3.250000e+01
      endloop
   endfacet
   facet normal 0.000000e+00 0.000000e+00 1.000000e+00
      outer loop
         vertex 6.306023e+00 2.941472e+01 3.250000e+01
         vertex 1.092652e+01 3.805906e+01 3.250000e+01
         vertex -2.500000e+00 3.099123e+01 3.250000e+01
      endloop
   endfacet
   facet normal 0.000000e+00 0.000000e+00 1.000000e+00
      outer loop
         vertex -2.500000e+00 3.099123e+01 3.250000e+01
         vertex 1.092652e+01 3.805906e+01 3.250000e+01
         vertex 1.920849e+01 5.269972e+01 3.250000e+01
      endloop
   endfacet
   facet normal 0.000000e+00 0.000000e+00 1.000000e+00
      outer loop
         vertex 1.092652e+01 3.805906e+01 3.250000e+01
         vertex 1.714466e+01 4.563589e+01 3.250000e+01
         vertex 1.920849e+01 5.269972e+01 3.250000e+01
      endloop
   endfacet
   facet normal 0.000000e+00 0.000000e+00 1.000000e+00
      outer loop
         vertex 1.920849e+01 5.269972e+01 3.250000e+01
         vertex 1.714466e+01 4.563589e+01 3.250000e+01
         vertex 2.275931e+01 5.125054e+01 3.250000e+01
      endloop
   endfacet
   facet normal 0.000000e+00 0.000000e+00 1.000000e+00
      outer loop
         vertex 2.500000e+00 1.028055e+01 3.250000e+01
         vertex 3.460736e+00 2.003507e+01 3.250000e+01
         vertex -2.500000e+00 3.099123e+01 3.250000e+01
      endloop
   endfacet
   facet normal 0.000000e+00 0.000000e+00 1.000000e+00
      outer loop
         vertex 2.500000e+00 1.028055e+01 3.250000e+01
         vertex -2.500000e+00 3.099123e+01 3.250000e+01
         vertex -2.500000e+00 6.091229e+00 3.250000e+01
      endloop
   endfacet
   facet normal 0.000000e+00 0.000000e+00 1.000000e+00
      outer loop
         vertex 2.500000e+00 1.028055e+01 3.250000e+01
         vertex -2.500000e+00 6.091229e+00 3.250000e+01
         vertex 2.500000e+00 6.091229e+00 3.250000e+01
      endloop
   endfacet
   facet normal 0.000000e+00 0.000000e+00 -1.000000e+00
      outer loop
         vertex -2.500000e+00 6.091229e+00 -6.430167e-15
         vertex -2.500000e+00 3.099123e+01 -2.694237e-15
         vertex 6.306023e+00 2.941472e+01 -4.279741e-15
      endloop
   endfacet
   facet normal 0.000000e+00 0.000000e+00 -1.000000e+00
      outer loop
         vertex -2.500000e+00 6.091229e+00 -6.430167e-15
         vertex 6.306023e+00 2.941472e+01 -4.279741e-15
         vertex 3.460736e+00 2.003507e+01 -4.854080e-15
      endloop
   endfacet
   facet normal 0.000000e+00 0.000000e+00 -1.000000e+00
      outer loop
         vertex -2.500000e+00 6.091229e+00 -6.430167e-15
         vertex 3.460736e+00 2.003507e+01 -4.854080e-15
         vertex 2.500000e+00 1.028055e+01 -5.451371e-15
      endloop
   endfacet
   facet normal 0.000000e+00 0.000000e+00 -1.000000e+00
      outer loop
         vertex -2.500000e+00 6.091229e+00 -6.430167e-15
         vertex 2.500000e+00 1.028055e+01 -5.451371e-15
         vertex 2.500000e+00 6.091229e+00 -7.692146e-15
      endloop
   endfacet
   facet normal 0.000000e+00 0.000000e+00 -1.000000e+00
      outer loop
         vertex -2.500000e+00 3.099123e+01 -2.694237e-15
         vertex 1.920849e+01 5.269972e+01 -5.749356e-15
         vertex 2.275931e+01 5.125054e+01 -1.553141e-15
      endloop
   endfacet
   facet normal 0.000000e+00 0.000000e+00 -1.000000e+00
      outer loop
         vertex -2.500000e+00 3.099123e+01 -2.694237e-15
         vertex 2.275931e+01 5.125054e+01 -1.553141e-15
         vertex 1.714466e+01 4.563589e+01 -2.069298e-15
      endloop
   endfacet
   facet normal 0.000000e+00 0.000000e+00 -1.000000e+00
      outer loop
         vertex -2.500000e+00 3.099123e+01 -2.694237e-15
         vertex 1.714466e+01 4.563589e+01 -2.069298e-15
         vertex 1.092652e+01 3.805906e+01 -3.750428e-15
      endloop
   endfacet
   facet normal 0.000000e+00 0.000000e+00 -1.000000e+00
      outer loop
         vertex -2.500000e+00 3.099123e+01 -2.694237e-15
         vertex 1.092652e+01 3.805906e+01 -3.750428e-15
         vertex 6.306023e+00 2.941472e+01 -4.279741e-15
      endloop
   endfacet
   facet normal 1.000000e+00 -4.898587e-16 0.000000e+00
      outer loop
         vertex 2.500000e+00 6.091229e+00 3.250000e+01
         vertex 2.500000e+00 6.091229e+00 -1.634960e-15
         vertex 2.500000e+00 1.028055e+01 -6.409536e-15
      endloop
   endfacet
   facet normal 1.000000e+00 -4.898587e-16 0.000000e+00
      outer loop
         vertex 2.500000e+00 6.091229e+00 3.250000e+01
         vertex 2.500000e+00 1.028055e+01 -6.409536e-15
         vertex 2.500000e+00 1.028055e+01 3.250000e+01
      endloop
   endfacet
   facet normal 7.730105e-01 -6.343933e-01 -0.000000e+00
      outer loop
         vertex 1.714466e+01 4.563589e+01 0.000000e+00
         vertex 1.714466e+01 4.563589e+01 3.250000e+01
         vertex 1.092652e+01 3.805906e+01 3.250000e+01
      endloop
   endfacet
   facet normal 7.730105e-01 -6.343933e-01 -0.000000e+00
      outer loop
         vertex 1.714466e+01 4.563589e+01 0.000000e+00
         vertex 1.092652e+01 3.805906e+01 3.250000e+01
         vertex 1.092652e+01 3.805906e+01 0.000000e+00
      endloop
   endfacet
   facet normal 8.819213e-01 -4.713967e-01 -0.000000e+00
      outer loop
         vertex 1.092652e+01 3.805906e+01 0.000000e+00
         vertex 1.092652e+01 3.805906e+01 3.250000e+01
         vertex 6.306023e+00 2.941472e+01 3.250000e+01
      endloop
   endfacet
   facet normal 8.819213e-01 -4.713967e-01 -0.000000e+00
      outer loop
         vertex 1.092652e+01 3.805906e+01 0.000000e+00
         vertex 6.306023e+00 2.941472e+01 3.250000e+01
         vertex 6.306023e+00 2.941472e+01 0.000000e+00
      endloop
   endfacet
   facet normal 9.569403e-01 -2.902847e-01 -0.000000e+00
      outer loop
         vertex 6.306023e+00 2.941472e+01 0.000000e+00
         vertex 6.306023e+00 2.941472e+01 3.250000e+01
         vertex 3.460736e+00 2.003507e+01 3.250000e+01
      endloop
   endfacet
   facet normal 9.569403e-01 -2.902847e-01 -0.000000e+00
      outer loop
         vertex 6.306023e+00 2.941472e+01 0.000000e+00
         vertex 3.460736e+00 2.003507e+01 3.250000e+01
         vertex 3.460736e+00 2.003507e+01 0.000000e+00
      endloop
   endfacet
   facet normal 9.951847e-01 -9.801714e-02 -0.000000e+00
      outer loop
         vertex 3.460736e+00 2.003507e+01 0.000000e+00
         vertex 3.460736e+00 2.003507e+01 3.250000e+01
         vertex 2.500000e+00 1.028055e+01 3.250000e+01
      endloop
   endfacet
   facet normal 9.951847e-01 -9.801714e-02 -0.000000e+00
      outer loop
         vertex 3.460736e+00 2.003507e+01 0.000000e+00
         vertex 2.500000e+00 1.028055e+01 3.250000e+01
         vertex 2.500000e+00 1.028055e+01 0.000000e+00
      endloop
   endfacet
   facet normal 7.071068e-01 -7.071068e-01 0.000000e+00
      outer loop
         vertex 1.714466e+01 4.563589e+01 3.250000e+01
         vertex 1.714466e+01 4.563589e+01 1.217184e-15
         vertex 2.275931e+01 5.125054e+01 -5.278213e-15
      endloop
   endfacet
   facet normal 7.071068e-01 -7.071068e-01 0.000000e+00
      outer loop
         vertex 1.714466e+01 4.563589e+01 3.250000e+01
         vertex 2.275931e+01 5.125054e+01 -5.278213e-15
         vertex 2.275931e+01 5.125054e+01 3.250000e+01
      endloop
   endfacet
   facet normal 3.778653e-01 9.258606e-01 0.000000e+00
      outer loop
         vertex 2.275931e+01 5.125054e+01 3.250000e+01
         vertex 2.275931e+01 5.125054e+01 -9.459885e-16
         vertex 1.920849e+01 5.269972e+01 -1.630939e-15
      endloop
   endfacet
   facet normal 3.778653e-01 9.258606e-01 0.000000e+00
      outer loop
         vertex 2.275931e+01 5.125054e+01 3.250000e+01
         vertex 1.920849e+01 5.269972e+01 -1.630939e-15
         vertex 1.920849e+01 5.269972e+01 3.250000e+01
      endloop
   endfacet
   facet normal -7.071068e-01 7.071068e-01 0.000000e+00
      outer loop
         vertex 1.920849e+01 5.269972e+01 3.250000e+01
         vertex 1.920849e+01 5.269972e+01 -1.672401e-15
         vertex -2.500000e+00 3.099123e+01 -2.637726e-15
      endloop
   endfacet
   facet normal -7.071068e-01 7.071068e-01 0.000000e+00
      outer loop
         vertex 1.920849e+01 5.269972e+01 3.250000e+01
         vertex -2.500000e+00 3.099123e+01 -2.637726e-15
         vertex -2.500000e+00 3.099123e+01 3.250000e+01
      endloop
   endfacet
   facet normal -1.000000e+00 3.673940e-16 0.000000e+00
      outer loop
         vertex -2.500000e+00 3.099123e+01 3.250000e+01
         vertex -2.500000e+00 3.099123e+01 3.034454e-15
         vertex -2.500000e+00 6.091229e+00 -6.750294e-15
      endloop
   endfacet
   facet normal -1.000000e+00 3.673940e-16 0.000000e+00
      outer loop
         vertex -2.500000e+00 3.099123e+01 3.250000e+01
         vertex -2.500000e+00 6.091229e+00 -6.750294e-15
         vertex -2.500000e+00 6.091229e+00 3.250000e+01
      endloop
   endfacet
   facet normal -4.286264e-16 -1.000000e+00 0.000000e+00
      outer loop
         vertex -2.500000e+00 6.091229e+00 3.250000e+01
         vertex -2.500000e+00 6.091229e+00 -1.764673e-15
         vertex 2.500000e+00 6.091229e+00 -5.358601e-15
      endloop
   endfacet
   facet normal -4.286264e-16 -1.000000e+00 0.000000e+00
      outer loop
         vertex -2.500000e+00 6.091229e+00 3.250000e+01
         vertex 2.500000e+00 6.091229e+00 -5.358601e-15
         vertex 2.500000e+00 6.091229e+00 3.250000e+01
      endloop
   endfacet
endsolid
